<?xml version="1.0" encoding="UTF-8"?>
<svg id="Capa_1" xmlns="http://www.w3.org/2000/svg" version="1.1" viewBox="0 0 16 16">
  <!-- Generator: Adobe Illustrator 30.1.0, SVG Export Plug-In . SVG Version: 2.1.1 Build 136)  -->
  <path d="M12.63,11.24c0,.19-.02.4-.05.62-.03.22-.08.43-.15.61-.07.19-.15.35-.25.48-.1.13-.22.2-.36.21l-2.6.15v-4.43h0V3.88c0-.42.07-.68.19-.8.12-.11.28-.13.48-.05v-.28l-2.74-1.05v.33c.28.1.49.26.63.48.14.22.21.55.21,1.01v5.17h0v3.77c0,.46-.07.78-.2.96-.13.18-.32.27-.56.29v.32l5.47-.33.1-2.48h-.19Z"/>
  <path d="M4.03,3.03c.2-.07.37-.06.48.05.12.11.18.38.18.8v4.99h0v3.52c0,.46-.06.77-.19.93-.13.16-.31.23-.55.22v.32l2.73.17v-.32c-.24-.01-.42-.11-.56-.29-.13-.18-.2-.49-.21-.96v-3.59h0V3.53c.01-.46.09-.8.23-1.01.15-.22.36-.38.64-.48v-.33l-2.75,1.05v.28Z"/>
</svg>